<?xml version="1.0" encoding="utf-8"?>
<!-- Generator: Adobe Illustrator 22.1.0, SVG Export Plug-In . SVG Version: 6.00 Build 0)  -->
<svg version="1.1" id="Layer_1" xmlns="http://www.w3.org/2000/svg" xmlns:xlink="http://www.w3.org/1999/xlink" x="0px" y="0px"
	 viewBox="0 0 436 436" style="enable-background:new 0 0 436 436;" xml:space="preserve">
<style type="text/css">
	.st0{fill:none;}
	.st1{font-family:'MyriadPro-Regular';}
	.st2{font-size:145px;}
</style>
<path d="M222.1,323.4L255,345v-43.2L222.1,323.4z"/>
<path d="M340.1,61.8l0.1,95.9c12.3-2.4,23.8-5.1,34.5-8.2c38.1-11.1,60.8-26,60.8-39.7C435.5,91.8,397.5,72.9,340.1,61.8z"/>
<path d="M0,109.7c0,13.7,22.7,28.6,60.8,39.7c11.5,3.4,24.1,6.3,37.6,8.8l0.1-97C30.5,73.8,0,94.4,0,109.7z"/>
<path d="M56.9,162.8c-25.9-7.6-45-16.6-56.8-26.9l0.6,180.8c0,13.7,22.7,28.6,60.6,39.7c41.7,12.2,97.4,18.9,156.8,18.9
	c59.4,0,115.2-6.7,157-18.9c38.1-11.1,60.9-26,60.9-39.7l-0.5-180.9c-11.8,10.3-30.9,19.4-56.9,27c-43.1,12.6-100.2,19.5-160.9,19.5
	C157.1,182.3,99.9,175.4,56.9,162.8z M88,217c34.8-11.4,81-17.6,130-17.6c49,0,95.2,6.3,130,17.6c47.8,15.6,57.8,34.9,57.8,48.3
	c0,11.5-7.5,28.2-43.1,43c-24,9.9-56.7,17.2-93.7,20.6v28.9c0,2.6-1.4,4.9-3.7,6.2c-2.3,1.2-5,1.1-7.2-0.3l-52.7-34.5
	c-2-1.3-3.2-3.5-3.2-5.8c0-2.4,1.2-4.6,3.2-5.9l52.7-34.5c2.2-1.4,4.9-1.5,7.2-0.3c2.3,1.2,3.7,3.6,3.7,6.2v26.1
	c35-3.4,65.9-10.2,88.4-19.5c21.9-9.1,34.5-20,34.5-30c0-12.1-18-25.2-48.1-35c-33.5-10.9-78.1-16.9-125.7-16.9s-92.2,6-125.7,16.9
	c-30.1,9.8-48.1,22.9-48.1,35c0,10.2,12.8,21.2,35.3,30.4c24.5,10,59.1,17.1,97.3,20.1c3.8,0.3,6.6,3.5,6.5,7.2
	c-0.1,3.8-3.2,6.7-7,6.7c-0.2,0-0.4,0-0.5,0c-39.6-3.1-75.7-10.5-101.5-21c-36.3-14.8-44-31.7-44-43.3C30.2,251.9,40.2,232.6,88,217
	z"/>
<rect x="167.5" y="35" class="st0" width="101" height="119"/>
<text transform="matrix(1 0 0 1 167.4995 137.9487)" class="st1 st2">Q</text>
</svg>
